<?xml version="1.0" encoding="UTF-8" standalone="no"?>
<!-- Created with Inkscape (http://www.inkscape.org/) -->

<svg
   width="250"
   height="250"
   viewBox="0 0 66.145832 66.145833"
   version="1.1"
   id="svg5"
   xmlns="http://www.w3.org/2000/svg"
   xmlns:svg="http://www.w3.org/2000/svg">
  <defs
     id="defs2" />
  <g
     id="layer1">
    <path
       id="path324"
       style="fill:#000000;stroke:#c0aa3f;stroke-width:1.34405;stroke-linecap:square;stroke-dasharray:none;stroke-opacity:1;paint-order:fill markers stroke"
       d="m 20.030272,11.946825 c -6.565258,5.6e-5 -11.8874371,5.322235 -11.8874932,11.887494 0.00285,3.838576 1.8590622,7.439551 4.9840112,9.66876 L 9.7278127,52.828 H 30.30228 L 26.909604,33.52198 c 3.139721,-2.227701 5.006268,-5.837922 5.008686,-9.687661 -5.5e-5,-6.565464 -5.322555,-11.887728 -11.888018,-11.887494 z" />
    <path
       style="fill:#d40000;fill-opacity:1;stroke:#ffffff;stroke-width:0.53762;stroke-dasharray:none;stroke-opacity:1"
       d="M 28.163473,36.807899 20.284177,23.375203 32.275061,30.70104 Z"
       id="path8244" />
    <path
       style="fill:#d40000;fill-opacity:1;stroke:#ffffff;stroke-width:0.53762;stroke-dasharray:none;stroke-opacity:1"
       d="M 20.32089,23.567779 6.5590926,21.388828 6.3297297,26.43482 Z"
       id="path8246" />
    <g
       id="path8248">
      <path
         style="color:#000000;fill:#d40000;stroke-width:0.53762;-inkscape-stroke:none"
         d="M 20.32089,23.911824 17.783975,38.515503"
         id="path22523" />
      <path
         style="color:#000000;fill:#c0aa3f;-inkscape-stroke:none"
         d="m 20.056641,23.865234 -2.53711,14.603516 0.529297,0.0918 2.537109,-14.603516 z"
         id="path22525" />
      <g
         id="g22513">
        <g
           id="path22515">
          <path
             style="color:#000000;fill:#c0aa3f;fill-rule:evenodd;stroke-width:0.26881pt;-inkscape-stroke:none"
             d="m 17.507927,40.104564 c -0.126819,-0.840538 -0.472475,-1.991928 -0.910146,-2.613631 0,0 1.059374,0.184032 1.232202,0.759726 0.356859,-0.483679 1.416233,-0.299647 1.416233,-0.299647 -0.621703,0.437671 -1.335421,1.405029 -1.738289,2.153552 z"
             id="path22519" />
          <path
             style="color:#000000;fill:#c0aa3f;fill-rule:evenodd;-inkscape-stroke:none"
             d="m 16.203125,37.240234 0.248047,0.353516 c 0.403284,0.572857 0.755652,1.720199 0.878906,2.537109 l 0.08008,0.53125 0.25586,-0.472656 c 0.391543,-0.727482 1.110737,-1.688513 1.683593,-2.091797 l 0.353516,-0.25 -0.425781,-0.07227 c 0,0 -0.281367,-0.05066 -0.613282,-0.03516 -0.272332,0.01272 -0.564796,0.138744 -0.802734,0.332032 -0.158729,-0.262583 -0.392245,-0.480084 -0.644531,-0.583985 -0.307241,-0.126533 -0.587891,-0.173828 -0.587891,-0.173828 z m 0.669922,0.519532 c 0.08621,0.02419 0.100082,0.0165 0.207031,0.06055 0.265653,0.109406 0.519192,0.286116 0.578125,0.482422 l 0.103516,0.341797 0.21289,-0.287109 c 0.121686,-0.16493 0.418092,-0.246363 0.705078,-0.259766 0.116257,-0.0054 0.127177,0.0053 0.216797,0.01172 -0.499075,0.441336 -0.970053,1.040181 -1.326172,1.638672 -0.133322,-0.683193 -0.37651,-1.404515 -0.697265,-1.988281 z"
             id="path22521" />
        </g>
      </g>
    </g>
    <g
       id="g8560"
       style="stroke:#ffffff;stroke-opacity:1"
       transform="matrix(1.0159749,0,0,1.0159749,-7.8907946,4.4159447)">
      <path
         style="fill:none;stroke:#ffffff;stroke-width:0.529167;stroke-dasharray:none;stroke-opacity:1"
         d="m 27.993849,18.737818 c 0,0 -3.747287,-7.026164 -6.561031,-9.6926839"
         id="path8119" />
      <path
         style="fill:none;stroke:#ffffff;stroke-width:0.529167;stroke-dasharray:none;stroke-opacity:1"
         d="m 27.99385,18.62494 c 0,0 0.09463,-6.908034 10.507964,-2.961941"
         id="path8175" />
      <path
         style="fill:none;stroke:#ffffff;stroke-width:0.529167;stroke-dasharray:none;stroke-opacity:1"
         d="m 27.99385,18.512062 c 0,0 -4.042623,6.227397 -8.565259,9.163946"
         id="path8177" />
      <path
         style="fill:none;stroke:#ffffff;stroke-width:0.529167;stroke-dasharray:none;stroke-opacity:1"
         d="m 27.99385,18.62494 c 0,0 -10e-7,-5.294217 8.918491,-6.311587"
         id="path8242" />
      <path
         style="fill:none;fill-opacity:1;stroke:#ffffff;stroke-width:0.529167;stroke-dasharray:none;stroke-opacity:1"
         d="m 27.655213,18.62494 c 0,0 -5.302879,-1.370207 -11.104155,-3.163856"
         id="path8468" />
      <path
         style="fill:none;fill-opacity:1;stroke:#ffffff;stroke-width:0.529167;stroke-dasharray:none;stroke-opacity:1"
         d="m 27.880971,18.850697 c 0,0 -6.054826,-3.95582 -8.195281,-8.150131"
         id="path8470" />
      <path
         style="fill:none;fill-opacity:1;stroke:#ffffff;stroke-width:0.529167;stroke-dasharray:none;stroke-opacity:1"
         d="M 27.880971,18.963575 30.590053,7.9014898"
         id="path8472" />
      <path
         style="fill:none;fill-opacity:1;stroke:#ffffff;stroke-width:0.529167;stroke-dasharray:none;stroke-opacity:1"
         d="M 27.880971,18.850697 20.205238,9.7075444"
         id="path8474" />
      <path
         style="fill:none;fill-opacity:1;stroke:#ffffff;stroke-width:0.529167;stroke-dasharray:none;stroke-opacity:1"
         d="m 27.880971,18.850697 c 10.271937,4.28938 11.062086,2.483325 11.062086,2.483325"
         id="path8478" />
      <path
         style="fill:none;fill-opacity:1;stroke:#ffffff;stroke-width:0.529167;stroke-dasharray:none;stroke-opacity:1"
         d="m 27.880971,19.189332 c 0,0 -2.934839,-8.014368 -2.370447,-11.5135992"
         id="path8480" />
    </g>
    <text
       xml:space="preserve"
       style="font-weight:bold;font-size:15.0668px;font-family:'Quicksand Light', Extra;-inkscape-font-specification:'Quicksand Light, Extra Bold';fill:#008080;stroke-width:1.32518"
       x="34.770588"
       y="51.36771"
       id="text113"><tspan
         style="font-style:italic;font-variant:normal;font-weight:bold;font-stretch:normal;font-size:15.0668px;font-family:Sansita;-inkscape-font-specification:'Sansita Bold Italic';fill:#008080;stroke-width:1.32518"
         x="34.770588"
         y="51.36771"
         id="tspan8854"><tspan
           style="font-style:italic;font-variant:normal;font-weight:300;font-stretch:normal;font-size:15.0668px;font-family:Sansita;-inkscape-font-specification:'Sansita Light Italic';fill:#000000;stroke-width:1.32518"
           id="tspan8856">4hep</tspan></tspan></text>
    <text
       xml:space="preserve"
       style="font-weight:bold;font-size:18.2964px;font-family:'Quicksand Light', Extra;-inkscape-font-specification:'Quicksand Light, Extra Bold';fill:#008080;stroke:none;stroke-width:0.963892;stroke-dasharray:none;stroke-opacity:1"
       x="0.26086855"
       y="50.504871"
       id="text113-1"><tspan
         style="font-style:italic;font-variant:normal;font-weight:bold;font-stretch:normal;font-size:18.2964px;font-family:Sansita;-inkscape-font-specification:'Sansita Bold Italic';fill:#008080;stroke:none;stroke-width:0.963892;stroke-dasharray:none;stroke-opacity:1"
         x="0.26086855"
         y="50.504871"
         id="tspan8854-0"><tspan
           style="font-style:normal;font-variant:normal;font-weight:900;font-stretch:normal;font-size:18.2964px;font-family:Sansita;-inkscape-font-specification:'Sansita Heavy';fill:#d40000;stroke:none;stroke-width:0.963892;stroke-dasharray:none;stroke-opacity:1"
           id="tspan949-0">Key</tspan><tspan
           style="font-style:italic;font-variant:normal;font-weight:300;font-stretch:normal;font-size:18.2964px;font-family:Sansita;-inkscape-font-specification:'Sansita Light Italic';fill:#000000;stroke:none;stroke-width:0.963892;stroke-dasharray:none;stroke-opacity:1"
           id="tspan8856-9" /></tspan></text>
  </g>
</svg>
