<?xml version="1.0" encoding="UTF-8" standalone="no"?>
<!DOCTYPE svg PUBLIC "-//W3C//DTD SVG 1.1//EN" "http://www.w3.org/Graphics/SVG/1.1/DTD/svg11.dtd">
<svg width="100%" height="100%" viewBox="0 0 271 258" version="1.1" xmlns="http://www.w3.org/2000/svg" xmlns:xlink="http://www.w3.org/1999/xlink" xml:space="preserve" xmlns:serif="http://www.serif.com/" style="fill-rule:evenodd;clip-rule:evenodd;stroke-linejoin:round;stroke-miterlimit:2;">
    <g transform="matrix(1,0,0,1,-613.021,-583.493)">
        <g transform="matrix(0.306537,0,0,0.306537,613.021,583.493)">
            <path d="M576.422,7L793.922,165.023L877,420.709L793.922,676.396L576.422,834.419L307.578,834.419L90.078,676.396L7,420.709L90.078,165.023L307.578,7L576.422,7Z" style="fill:rgb(52,61,70);"/>
        </g>
        <g transform="matrix(0.306537,0,0,0.306537,613.021,583.493)">
            <path d="M576.422,7L793.922,165.023L877,420.709L793.922,676.396L576.422,834.419L307.578,834.419L90.078,676.396L7,420.709L90.078,165.023L307.578,7L576.422,7ZM569.924,27L776.909,177.384L855.971,420.709L776.909,664.035L569.924,814.419L314.076,814.419C314.076,814.419 139.802,687.801 107.091,664.035L28.029,420.709L107.091,177.384C107.091,177.384 281.365,50.766 314.076,27L569.924,27Z" style="fill:rgb(196,204,212);"/>
        </g>
        <g transform="matrix(0.306537,0,0,0.306537,613.021,583.493)">
            <path d="M580.537,1.337C579.341,0.468 577.901,0 576.422,0L307.578,0C306.099,0 304.659,0.468 303.463,1.337L85.963,159.36C84.767,160.229 83.877,161.454 83.42,162.86L0.343,418.546C-0.114,419.952 -0.114,421.467 0.343,422.873L83.42,678.559C83.877,679.965 84.767,681.19 85.963,682.059L303.463,840.082C304.659,840.951 306.099,841.419 307.578,841.419L576.422,841.419C577.901,841.419 579.341,840.951 580.537,840.082L798.037,682.059C799.233,681.19 800.123,679.965 800.58,678.559L883.657,422.873C884.114,421.467 884.114,419.952 883.657,418.546L800.58,162.86C800.123,161.454 799.233,160.229 798.037,159.36L580.537,1.337ZM576.422,7L793.922,165.023L877,420.709L793.922,676.396L576.422,834.419L307.578,834.419L90.078,676.396L7,420.709L90.078,165.023L307.578,7L576.422,7Z" style="fill:rgb(52,61,70);"/>
        </g>
        <g transform="matrix(1,0,0,1,0,-365.613)">
            <g transform="matrix(0.306537,0,0,0.306537,613.021,837.032)">
                <path d="M180.489,637.309L187.354,640.138C192.92,627.057 210.594,585.912 216.995,569.584L210.13,566.894C205.12,580.16 187.354,621.676 182.901,632.113C182.066,634.062 180.767,636.706 180.489,637.309Z" style="fill:rgb(249,174,88);fill-opacity:0.35;fill-rule:nonzero;"/>
            </g>
        </g>
        <g transform="matrix(1,0,0,1,0,-365.613)">
            <g transform="matrix(0.306537,0,0,0.306537,613.021,837.032)">
                <path d="M229.659,637.309L236.524,640.138C242.09,627.057 259.764,585.912 266.165,569.584L259.3,566.894C254.29,580.16 236.524,621.676 232.071,632.113C231.236,634.062 229.937,636.706 229.659,637.309Z" style="fill:rgb(249,174,88);fill-opacity:0.35;fill-rule:nonzero;"/>
            </g>
        </g>
        <g transform="matrix(1,0,0,1,0,-365.613)">
            <g transform="matrix(0.306537,0,0,0.306537,613.021,837.032)">
                <path d="M278.829,637.309L285.694,640.138C291.26,627.057 308.934,585.912 315.335,569.584L308.47,566.894C303.46,580.16 285.694,621.676 281.241,632.113C280.406,634.062 279.107,636.706 278.829,637.309Z" style="fill:rgb(249,174,88);fill-opacity:0.35;fill-rule:nonzero;"/>
            </g>
        </g>
        <g transform="matrix(1,0,0,1,0,-365.613)">
            <g transform="matrix(0.306537,0,0,0.306537,613.021,837.032)">
                <path d="M327.999,637.309L334.864,640.138C340.43,627.057 358.104,585.912 364.505,569.584L357.64,566.894C352.63,580.16 334.864,621.676 330.411,632.113C329.576,634.062 328.277,636.706 327.999,637.309Z" style="fill:rgb(249,174,88);fill-opacity:0.35;fill-rule:nonzero;"/>
            </g>
        </g>
        <g transform="matrix(1,0,0,1,0,-365.613)">
            <g transform="matrix(0.306537,0,0,0.306537,613.021,837.032)">
                <path d="M377.169,637.309L384.034,640.138C389.6,627.057 407.274,585.912 413.675,569.584L406.81,566.894C401.8,580.16 384.034,621.676 379.581,632.113C378.746,634.062 377.447,636.706 377.169,637.309Z" style="fill:rgb(249,174,88);fill-opacity:0.35;fill-rule:nonzero;"/>
            </g>
        </g>
        <g transform="matrix(1,0,0,1,0,-365.613)">
            <g transform="matrix(0.306537,0,0,0.306537,613.021,837.032)">
                <path d="M512.896,637.309C512.618,636.706 511.319,634.062 510.577,632.113C506.031,621.676 488.311,580.16 483.301,566.894L476.436,569.584C482.837,585.912 500.464,627.057 506.031,640.138L512.896,637.309Z" style="fill:rgb(198,149,198);fill-opacity:0.35;fill-rule:nonzero;"/>
            </g>
        </g>
        <g transform="matrix(1,0,0,1,0,-365.613)">
            <g transform="matrix(0.306537,0,0,0.306537,613.021,837.032)">
                <path d="M562.066,637.309C561.788,636.706 560.489,634.062 559.747,632.113C555.201,621.676 537.481,580.16 532.471,566.894L525.606,569.584C532.007,585.912 549.634,627.057 555.201,640.138L562.066,637.309Z" style="fill:rgb(198,149,198);fill-opacity:0.35;fill-rule:nonzero;"/>
            </g>
        </g>
        <g transform="matrix(1,0,0,1,0,-365.613)">
            <g transform="matrix(0.306537,0,0,0.306537,613.021,837.032)">
                <path d="M611.236,637.309C610.958,636.706 609.659,634.062 608.917,632.113C604.371,621.676 586.651,580.16 581.641,566.894L574.776,569.584C581.177,585.912 598.804,627.057 604.371,640.138L611.236,637.309Z" style="fill:rgb(198,149,198);fill-opacity:0.35;fill-rule:nonzero;"/>
            </g>
        </g>
        <g transform="matrix(1,0,0,1,0,-365.613)">
            <g transform="matrix(0.306537,0,0,0.306537,613.021,837.032)">
                <path d="M660.406,637.309C660.128,636.706 658.829,634.062 658.087,632.113C653.541,621.676 635.821,580.16 630.811,566.894L623.946,569.584C630.347,585.912 647.974,627.057 653.541,640.138L660.406,637.309Z" style="fill:rgb(198,149,198);fill-opacity:0.35;fill-rule:nonzero;"/>
            </g>
        </g>
        <g transform="matrix(1,0,0,1,0,-365.613)">
            <g transform="matrix(0.306537,0,0,0.306537,613.021,837.032)">
                <path d="M709.576,637.309C709.297,636.706 707.999,634.062 707.256,632.113C702.711,621.676 684.991,580.16 679.981,566.894L673.116,569.584C679.517,585.912 697.144,627.057 702.711,640.138L709.576,637.309Z" style="fill:rgb(198,149,198);fill-opacity:0.35;fill-rule:nonzero;"/>
            </g>
        </g>
        <g transform="matrix(1,0,0,1,0,-26.262)">
            <g transform="matrix(0.306537,0,0,0.306537,613.021,601.704)">
                <path d="M99.641,428.934C103.391,424.372 118.828,407.247 130.203,398.997L123.266,392.372C121.953,393.684 114.078,399.809 102.141,411.997C95.953,418.434 91.516,423.372 86.516,430.309L86.516,392.497L76.641,392.497L76.641,474.559L86.516,474.559L86.516,447.309C88.391,442.872 93.641,436.747 93.641,436.747C101.766,444.622 120.766,468.497 123.641,475.309L132.016,470.559C128.828,462.122 107.141,436.247 99.641,428.934Z" style="fill:rgb(102,153,204);fill-rule:nonzero;"/>
            </g>
        </g>
        <g transform="matrix(1,0,0,1,0,-8.637)">
            <g transform="matrix(0.306537,0,0,0.306537,613.021,589.482)">
                <path d="M150.391,420.372C150.453,410.747 156.891,402.309 167.516,402.309C176.016,402.309 182.391,408.684 183.391,418.747C174.516,419.747 158.453,420.309 150.391,420.372ZM167.453,392.809C149.766,392.809 140.516,406.497 140.516,424.372C140.516,443.934 149.641,457.247 168.266,457.247C183.141,457.247 190.266,448.997 192.828,446.184L185.141,439.372C182.703,442.747 177.453,447.684 168.516,447.684C155.766,447.684 150.391,439.497 150.391,429.934C161.516,429.809 175.766,429.059 193.266,427.872C193.328,427.372 193.328,426.434 193.328,425.184C193.328,416.559 191.016,392.809 167.453,392.809Z" style="fill:rgb(102,153,204);fill-rule:nonzero;"/>
            </g>
        </g>
        <g transform="matrix(1,0,0,1,0,14.238)">
            <g transform="matrix(0.306537,0,0,0.306537,613.021,573.619)">
                <path d="M222.891,447.684C217.891,447.684 215.141,444.809 215.141,433.747L205.391,433.747C205.391,450.622 212.203,457.247 223.141,457.247C232.453,457.247 237.328,451.059 240.641,442.622C248.891,423.184 255.203,402.559 259.266,380.497C259.828,377.309 260.141,373.747 260.141,369.997L250.266,369.997C249.766,384.184 245.641,402.247 241.016,415.809C233.953,395.497 223.828,371.997 213.391,370.434C211.641,370.184 208.516,369.934 206.453,369.934L206.453,379.497C208.703,379.497 211.266,379.559 213.328,381.434C221.953,389.184 229.391,408.997 235.266,429.497C232.891,436.122 229.516,447.684 222.891,447.684Z" style="fill:rgb(102,153,204);fill-rule:nonzero;"/>
            </g>
        </g>
        <g transform="matrix(1,0,0,1,0,-26.949)">
            <g transform="matrix(0.306537,0,0,0.306537,613.021,602.181)">
                <path d="M305.953,439.309L286.078,439.309C291.828,433.246 301.391,421.121 305.953,413.059L305.953,439.309ZM273.016,440.996L276.766,449.121L305.953,449.121L305.953,475.059L315.703,475.059L315.703,448.934L323.703,448.934L323.703,439.309L315.703,439.309L315.703,393.309L305.516,393.309C304.141,403.496 275.141,438.121 273.016,440.996Z" style="fill:rgb(102,153,204);fill-rule:nonzero;"/>
            </g>
        </g>
        <g transform="matrix(1,0,0,1,0,-10.887)">
            <g transform="matrix(0.306537,0,0,0.306537,613.021,591.042)">
                <path d="M389.016,454.184C383.266,445.934 363.078,432.872 354.141,426.559C364.078,418.872 378.766,406.684 388.828,401.372L385.891,391.559C383.703,392.247 382.391,393.122 380.516,394.184C372.203,399.059 352.391,414.997 342.578,423.059L342.578,430.559C344.203,431.684 368.016,448.934 373.953,453.872C376.953,456.247 379.703,458.497 381.203,460.747L389.016,454.184Z" style="fill:rgb(153,199,148);fill-rule:nonzero;"/>
            </g>
        </g>
        <g transform="matrix(1,0,0,1,0,-30.887)">
            <g transform="matrix(0.306537,0,0,0.306537,613.021,604.912)">
                <path d="M447.828,442.872L443.953,462.622C443.703,463.809 443.016,466.809 443.016,469.122C443.016,475.247 448.203,479.684 453.953,481.059L458.078,472.559C455.328,471.184 453.078,470.934 453.078,466.559C453.078,465.622 453.766,462.247 453.891,461.684C455.203,455.122 456.578,448.309 458.453,438.747C459.016,435.622 459.516,432.934 459.516,430.434C459.516,419.122 451.828,415.122 440.453,415.122C434.078,415.122 426.766,419.184 421.641,426.872L428.578,391.247L418.641,391.247C418.641,391.247 410.266,434.622 404.141,466.122C403.203,470.934 402.453,473.872 401.078,478.372L410.828,478.872C411.703,475.997 412.953,471.434 413.828,466.497L417.078,448.622C425.641,429.684 437.203,424.684 442.078,424.684C447.391,424.684 449.453,428.059 449.453,432.184C449.453,434.747 448.578,438.997 447.828,442.872Z" style="fill:rgb(249,174,88);fill-rule:nonzero;"/>
            </g>
        </g>
        <g transform="matrix(1,0,0,1,0,-8.637)">
            <g transform="matrix(0.306537,0,0,0.306537,613.021,589.482)">
                <path d="M483.266,425.872C486.328,410.184 494.016,402.309 504.641,402.309C513.141,402.309 517.578,406.122 517.578,410.684C517.578,413.934 515.328,417.497 510.641,420.309C503.516,424.559 490.453,425.372 483.266,425.872ZM506.391,392.809C488.703,392.809 476.828,406.497 473.328,424.372C472.641,427.934 472.266,431.309 472.266,434.372C472.266,448.372 479.453,457.247 494.703,457.247C513.016,457.247 520.516,448.872 523.641,446.059L517.266,439.247C514.203,442.622 508.016,447.684 496.828,447.684C484.703,447.684 482.266,440.497 482.266,435.997L482.266,435.309C491.266,434.622 506.953,433.247 516.516,427.434C523.328,423.247 526.703,416.684 526.703,410.372C526.703,401.309 519.828,392.809 506.391,392.809Z" style="fill:rgb(249,174,88);fill-rule:nonzero;"/>
            </g>
        </g>
        <g transform="matrix(1,0,0,1,0,14.801)">
            <g transform="matrix(0.306537,0,0,0.306537,613.021,573.229)">
                <path d="M582.516,400.246C579.078,417.934 570.641,423.934 560.453,423.934C554.766,423.934 551.953,419.996 549.328,416.809L551.328,406.309C558.266,391.496 568.078,379.559 576.641,379.559C581.578,379.559 583.703,383.371 583.703,389.934C583.703,392.871 583.266,396.309 582.516,400.246ZM545.391,385.871L533.828,442.309C532.641,447.996 531.953,453.246 531.641,457.809L541.766,458.184C542.141,453.934 542.828,448.559 543.703,442.621L546.516,428.809C549.141,430.746 551.453,433.621 557.703,433.621C577.891,433.621 588.516,420.059 592.578,399.059C593.203,395.746 593.516,392.621 593.516,389.684C593.516,377.871 588.328,369.871 578.453,369.871C569.578,369.871 563.516,371.809 555.266,384.934C555.703,382.309 557.828,370.434 557.891,368.434L547.391,369.684C547.203,373.809 546.703,379.184 545.703,384.371C545.578,384.871 545.516,385.371 545.391,385.871Z" style="fill:rgb(249,174,88);fill-rule:nonzero;"/>
            </g>
        </g>
        <g transform="matrix(1,0,0,1,0,-10.824)">
            <g transform="matrix(0.306537,0,0,0.306537,613.021,590.999)">
                <path d="M657.266,421.871C651.828,417.684 625.203,399.434 618.578,391.559L611.203,397.934C612.391,399.809 613.766,400.996 615.453,402.559C622.578,409.184 637.828,420.309 645.703,425.934C636.891,432.996 620.578,446.121 609.641,451.996L613.891,460.684C625.016,456.621 651.266,433.496 657.266,429.184L657.266,421.871Z" style="fill:rgb(153,199,148);fill-rule:nonzero;"/>
            </g>
        </g>
        <g transform="matrix(1,0,0,1,0,-37.347)">
            <g transform="matrix(0.306537,0,0,0.306537,613.021,609.391)">
                <path d="M694.588,439.383C694.588,448.179 695.573,455.837 697.542,462.357C699.511,468.878 702.542,474.884 706.633,480.376C710.725,485.868 715.9,491.502 722.157,497.278L715.331,504.105C708.242,498.285 702.17,492.29 697.115,486.119C692.061,479.949 688.188,473.09 685.497,465.541C682.806,457.992 681.46,449.273 681.46,439.383C681.46,429.493 682.806,420.774 685.497,413.225C688.188,405.676 692.061,398.817 697.115,392.647C702.17,386.476 708.242,380.481 715.331,374.661L722.157,381.488C715.9,387.22 710.736,392.822 706.666,398.292C702.596,403.762 699.566,409.768 697.575,416.31C695.584,422.852 694.588,430.543 694.588,439.383Z" style="fill:rgb(236,95,102);fill-rule:nonzero;"/>
            </g>
        </g>
        <g transform="matrix(1,0,0,1,0,-37.347)">
            <g transform="matrix(0.306537,0,0,0.306537,613.021,609.391)">
                <path d="M794.231,439.383C794.231,430.543 793.236,422.852 791.245,416.31C789.254,409.768 786.223,403.762 782.153,398.292C778.084,392.822 772.92,387.22 766.662,381.488L773.489,374.661C780.578,380.481 786.65,386.476 791.704,392.647C796.758,398.817 800.631,405.676 803.323,413.225C806.014,420.774 807.359,429.493 807.359,439.383C807.359,449.273 806.014,457.992 803.323,465.541C800.631,473.09 796.758,479.949 791.704,486.119C786.65,492.29 780.578,498.285 773.489,504.105L766.662,497.278C772.92,491.502 778.095,485.868 782.186,480.376C786.278,474.884 789.308,468.878 791.277,462.357C793.247,455.837 794.231,448.179 794.231,439.383Z" style="fill:rgb(236,95,102);fill-rule:nonzero;"/>
            </g>
        </g>
        <g transform="matrix(1,0,0,1,0,357.866)">
            <g transform="matrix(0.306537,0,0,0.306537,613.021,335.326)">
                <path d="M188.607,245.534C194.219,247.111 200.157,249.013 200.157,255.229C200.157,256.62 199.832,258.197 199.183,260.053C198.069,263.068 196.724,266.408 196.724,269.701C196.724,272.021 197.42,274.34 199.275,276.52C203.589,281.53 210.501,281.994 216.67,282.272L216.902,274.943C210.176,274.618 204.564,274.711 204.564,269.284C204.564,264.599 207.393,260.285 207.393,254.95C207.393,247.992 202.708,242.89 198.255,241.823C202.708,240.756 207.393,235.653 207.393,228.695C207.393,223.361 204.564,219.047 204.564,214.362C204.564,208.935 210.176,208.935 216.902,208.61L216.67,201.281C210.501,201.559 203.589,202.116 199.275,207.126C197.42,209.306 196.724,211.625 196.724,213.944C196.724,217.238 198.069,220.578 199.183,223.593C199.832,225.448 200.157,227.026 200.157,228.417C200.157,234.633 194.219,236.535 188.607,238.112L188.607,245.534Z" style="fill:rgb(198,149,198);fill-opacity:0.35;fill-rule:nonzero;"/>
            </g>
        </g>
        <g transform="matrix(1,0,0,1,0,357.866)">
            <g transform="matrix(0.306537,0,0,0.306537,613.021,335.326)">
                <path d="M237.776,245.534C243.389,247.111 249.327,249.013 249.327,255.229C249.327,256.62 249.002,258.197 248.353,260.053C247.239,263.068 245.894,266.408 245.894,269.701C245.894,272.021 246.59,274.34 248.445,276.52C252.759,281.53 259.671,281.994 265.84,282.272L266.072,274.943C259.346,274.618 253.733,274.711 253.733,269.284C253.733,264.599 256.563,260.285 256.563,254.95C256.563,247.992 251.878,242.89 247.425,241.823C251.878,240.756 256.563,235.653 256.563,228.695C256.563,223.361 253.733,219.047 253.733,214.362C253.733,208.935 259.346,208.935 266.072,208.61L265.84,201.281C259.671,201.559 252.759,202.116 248.445,207.126C246.59,209.306 245.894,211.625 245.894,213.944C245.894,217.238 247.239,220.578 248.353,223.593C249.002,225.448 249.327,227.026 249.327,228.417C249.327,234.633 243.389,236.535 237.776,238.112L237.776,245.534Z" style="fill:rgb(198,149,198);fill-opacity:0.35;fill-rule:nonzero;"/>
            </g>
        </g>
        <g transform="matrix(1,0,0,1,0,357.866)">
            <g transform="matrix(0.306537,0,0,0.306537,613.021,335.326)">
                <path d="M286.946,245.534C292.559,247.111 298.497,249.013 298.497,255.229C298.497,256.62 298.172,258.197 297.523,260.053C296.409,263.068 295.064,266.408 295.064,269.701C295.064,272.021 295.76,274.34 297.615,276.52C301.929,281.53 308.841,281.994 315.01,282.272L315.242,274.943C308.516,274.618 302.903,274.711 302.903,269.284C302.903,264.599 305.733,260.285 305.733,254.95C305.733,247.992 301.048,242.89 296.595,241.823C301.048,240.756 305.733,235.653 305.733,228.695C305.733,223.361 302.903,219.047 302.903,214.362C302.903,208.935 308.516,208.935 315.242,208.61L315.01,201.281C308.841,201.559 301.929,202.116 297.615,207.126C295.76,209.306 295.064,211.625 295.064,213.944C295.064,217.238 296.409,220.578 297.523,223.593C298.172,225.448 298.497,227.026 298.497,228.417C298.497,234.633 292.559,236.535 286.946,238.112L286.946,245.534Z" style="fill:rgb(198,149,198);fill-opacity:0.35;fill-rule:nonzero;"/>
            </g>
        </g>
        <g transform="matrix(1,0,0,1,0,357.866)">
            <g transform="matrix(0.306537,0,0,0.306537,613.021,335.326)">
                <path d="M336.116,245.534C341.729,247.111 347.667,249.013 347.667,255.229C347.667,256.62 347.342,258.197 346.692,260.053C345.579,263.068 344.234,266.408 344.234,269.701C344.234,272.021 344.93,274.34 346.785,276.52C351.099,281.53 358.011,281.994 364.18,282.272L364.412,274.943C357.686,274.618 352.073,274.711 352.073,269.284C352.073,264.599 354.903,260.285 354.903,254.95C354.903,247.992 350.218,242.89 345.765,241.823C350.218,240.756 354.903,235.653 354.903,228.695C354.903,223.361 352.073,219.047 352.073,214.362C352.073,208.935 357.686,208.935 364.412,208.61L364.18,201.281C358.011,201.559 351.099,202.116 346.785,207.126C344.93,209.306 344.234,211.625 344.234,213.944C344.234,217.238 345.579,220.578 346.692,223.593C347.342,225.448 347.667,227.026 347.667,228.417C347.667,234.633 341.729,236.535 336.116,238.112L336.116,245.534Z" style="fill:rgb(198,149,198);fill-opacity:0.35;fill-rule:nonzero;"/>
            </g>
        </g>
        <g transform="matrix(1,0,0,1,0,357.866)">
            <g transform="matrix(0.306537,0,0,0.306537,613.021,335.326)">
                <path d="M385.286,245.534C390.899,247.111 396.837,249.013 396.837,255.229C396.837,256.62 396.512,258.197 395.862,260.053C394.749,263.068 393.404,266.408 393.404,269.701C393.404,272.021 394.1,274.34 395.955,276.52C400.269,281.53 407.181,281.994 413.35,282.272L413.582,274.943C406.856,274.618 401.243,274.711 401.243,269.284C401.243,264.599 404.073,260.285 404.073,254.95C404.073,247.992 399.388,242.89 394.935,241.823C399.388,240.756 404.073,235.653 404.073,228.695C404.073,223.361 401.243,219.047 401.243,214.362C401.243,208.935 406.856,208.935 413.582,208.61L413.35,201.281C407.181,201.559 400.269,202.116 395.955,207.126C394.1,209.306 393.404,211.625 393.404,213.944C393.404,217.238 394.749,220.578 395.862,223.593C396.512,225.448 396.837,227.026 396.837,228.417C396.837,234.633 390.899,236.535 385.286,238.112L385.286,245.534Z" style="fill:rgb(198,149,198);fill-opacity:0.35;fill-rule:nonzero;"/>
            </g>
        </g>
        <g transform="matrix(1,0,0,1,0,357.866)">
            <g transform="matrix(0.306537,0,0,0.306537,613.021,335.326)">
                <path d="M507.191,245.534L507.191,238.112C501.578,236.535 495.64,234.633 495.64,228.417C495.64,227.026 495.965,225.448 496.614,223.593C497.728,220.578 499.073,217.238 499.073,213.944C499.073,211.625 498.377,209.306 496.522,207.126C492.208,202.116 485.296,201.559 479.127,201.281L478.895,208.61C485.621,208.935 491.233,208.935 491.233,214.362C491.233,219.047 488.404,223.361 488.404,228.695C488.404,235.653 493.089,240.756 497.542,241.823C493.089,242.89 488.404,247.992 488.404,254.95C488.404,260.285 491.233,264.599 491.233,269.284C491.233,274.711 485.621,274.618 478.895,274.943L479.127,282.272C485.296,281.994 492.208,281.53 496.522,276.52C498.377,274.34 499.073,272.021 499.073,269.701C499.073,266.408 497.728,263.068 496.614,260.053C495.965,258.197 495.64,256.62 495.64,255.229C495.64,249.013 501.578,247.111 507.191,245.534Z" style="fill:rgb(249,174,88);fill-opacity:0.35;fill-rule:nonzero;"/>
            </g>
        </g>
        <g transform="matrix(1,0,0,1,0,357.866)">
            <g transform="matrix(0.306537,0,0,0.306537,613.021,335.326)">
                <path d="M556.36,245.534L556.36,238.112C550.748,236.535 544.81,234.633 544.81,228.417C544.81,227.026 545.135,225.448 545.784,223.593C546.898,220.578 548.243,217.238 548.243,213.944C548.243,211.625 547.547,209.306 545.691,207.126C541.378,202.116 534.466,201.559 528.296,201.281L528.065,208.61C534.791,208.935 540.403,208.935 540.403,214.362C540.403,219.047 537.574,223.361 537.574,228.695C537.574,235.653 542.259,240.756 546.712,241.823C542.259,242.89 537.574,247.992 537.574,254.95C537.574,260.285 540.403,264.599 540.403,269.284C540.403,274.711 534.791,274.618 528.065,274.943L528.296,282.272C534.466,281.994 541.378,281.53 545.691,276.52C547.547,274.34 548.243,272.021 548.243,269.701C548.243,266.408 546.898,263.068 545.784,260.053C545.135,258.197 544.81,256.62 544.81,255.229C544.81,249.013 550.748,247.111 556.36,245.534Z" style="fill:rgb(249,174,88);fill-opacity:0.35;fill-rule:nonzero;"/>
            </g>
        </g>
        <g transform="matrix(1,0,0,1,0,357.866)">
            <g transform="matrix(0.306537,0,0,0.306537,613.021,335.326)">
                <path d="M605.53,245.534L605.53,238.112C599.918,236.535 593.98,234.633 593.98,228.417C593.98,227.026 594.305,225.448 594.954,223.593C596.067,220.578 597.413,217.238 597.413,213.944C597.413,211.625 596.717,209.306 594.861,207.126C590.547,202.116 583.636,201.559 577.466,201.281L577.234,208.61C583.961,208.935 589.573,208.935 589.573,214.362C589.573,219.047 586.744,223.361 586.744,228.695C586.744,235.653 591.429,240.756 595.882,241.823C591.429,242.89 586.744,247.992 586.744,254.95C586.744,260.285 589.573,264.599 589.573,269.284C589.573,274.711 583.961,274.618 577.234,274.943L577.466,282.272C583.636,281.994 590.547,281.53 594.861,276.52C596.717,274.34 597.413,272.021 597.413,269.701C597.413,266.408 596.067,263.068 594.954,260.053C594.305,258.197 593.98,256.62 593.98,255.229C593.98,249.013 599.918,247.111 605.53,245.534Z" style="fill:rgb(249,174,88);fill-opacity:0.35;fill-rule:nonzero;"/>
            </g>
        </g>
        <g transform="matrix(1,0,0,1,0,357.866)">
            <g transform="matrix(0.306537,0,0,0.306537,613.021,335.326)">
                <path d="M654.7,245.534L654.7,238.112C649.087,236.535 643.15,234.633 643.15,228.417C643.15,227.026 643.475,225.448 644.124,223.593C645.237,220.578 646.583,217.238 646.583,213.944C646.583,211.625 645.887,209.306 644.031,207.126C639.717,202.116 632.806,201.559 626.636,201.281L626.404,208.61C633.13,208.935 638.743,208.935 638.743,214.362C638.743,219.047 635.914,223.361 635.914,228.695C635.914,235.653 640.599,240.756 645.052,241.823C640.599,242.89 635.914,247.992 635.914,254.95C635.914,260.285 638.743,264.599 638.743,269.284C638.743,274.711 633.13,274.618 626.404,274.943L626.636,282.272C632.806,281.994 639.717,281.53 644.031,276.52C645.887,274.34 646.583,272.021 646.583,269.701C646.583,266.408 645.237,263.068 644.124,260.053C643.475,258.197 643.15,256.62 643.15,255.229C643.15,249.013 649.087,247.111 654.7,245.534Z" style="fill:rgb(249,174,88);fill-opacity:0.35;fill-rule:nonzero;"/>
            </g>
        </g>
        <g transform="matrix(1,0,0,1,0,357.866)">
            <g transform="matrix(0.306537,0,0,0.306537,613.021,335.326)">
                <path d="M703.87,245.534L703.87,238.112C698.257,236.535 692.32,234.633 692.32,228.417C692.32,227.026 692.645,225.448 693.294,223.593C694.407,220.578 695.753,217.238 695.753,213.944C695.753,211.625 695.057,209.306 693.201,207.126C688.887,202.116 681.976,201.559 675.806,201.281L675.574,208.61C682.3,208.935 687.913,208.935 687.913,214.362C687.913,219.047 685.084,223.361 685.084,228.695C685.084,235.653 689.769,240.756 694.222,241.823C689.769,242.89 685.084,247.992 685.084,254.95C685.084,260.285 687.913,264.599 687.913,269.284C687.913,274.711 682.3,274.618 675.574,274.943L675.806,282.272C681.976,281.994 688.887,281.53 693.201,276.52C695.057,274.34 695.753,272.021 695.753,269.701C695.753,266.408 694.407,263.068 693.294,260.053C692.645,258.197 692.32,256.62 692.32,255.229C692.32,249.013 698.257,247.111 703.87,245.534Z" style="fill:rgb(249,174,88);fill-opacity:0.35;fill-rule:nonzero;"/>
            </g>
        </g>
    </g>
</svg>
