<?xml version="1.0" encoding="UTF-8"?>
<svg width="500px" height="500px" viewBox="0 0 500 500" version="1.1" xmlns="http://www.w3.org/2000/svg" xmlns:xlink="http://www.w3.org/1999/xlink">
    <title>key4hep_v0</title>
    <g id="key4hep_v0" stroke="none" stroke-width="1" fill="none" fill-rule="evenodd">
        <circle id="Oval" fill="#06D6A0" cx="250" cy="250" r="209"></circle>
        <g id="Group" transform="translate(114.000000, 131.800000)">
            <rect id="Rectangle" fill="#212529" x="107" y="3.2" width="73" height="119"></rect>
            <g id="H" transform="translate(0.000000, 1.400000)" fill="#212529" fill-rule="nonzero">
                <polygon id="Path" points="82 0 82 123.8 57.4 123.8 57.4 69.2 24.6 69.2 24.6 123.8 0 123.8 0 0 24.6 0 24.6 48.8 57.4 48.8 57.4 0"></polygon>
            </g>
            <g id="E" transform="translate(82.600000, 1.400000)" fill="#06D6A0" fill-rule="nonzero">
                <polygon id="Path" points="0 123.8 0 0 75 0 75 20.4 24.6 20.4 24.6 48.2 68.4 48.2 68.4 68.6 24.6 68.6 24.6 103.4 79.4 103.4 79.4 123.8"></polygon>
            </g>
            <rect id="Rectangle-Copy" fill="#212529" x="156" y="2.2" width="24" height="271"></rect>
            <g id="P" transform="translate(191.800000, 0.000000)" fill="#212529" fill-rule="nonzero">
                <path d="M34,-1.42108547e-14 C49.7333333,-1.42108547e-14 61.9333333,3.23333333 70.6,9.7 C79.2666667,16.1666667 83.6,26.7333333 83.6,41.4 C83.6,56.2 79.2333333,66.9 70.5,73.5 C61.7666667,80.1 49.4,83.4 33.4,83.4 L24.6,83.4 L24.6,125.2 L5.68434189e-14,125.2 L5.68434189e-14,3 C2.4,2.46666667 5.1,2 8.1,1.6 C11.1,1.2 14.1333333,0.9 17.2,0.7 C20.2666667,0.5 23.2666667,0.333333333 26.2,0.2 C29.1333333,0.0666666667 31.7333333,-1.42108547e-14 34,-1.42108547e-14 Z M36.8,21.4 C35.3333333,21.4 33.3,21.4333333 30.7,21.5 C28.1,21.5666667 26.0666667,21.7333333 24.6,22 L24.6,62 L34.6,62 C42.4666667,62 48.4,60.4333333 52.4,57.3 C56.4,54.1666667 58.4,48.8 58.4,41.2 C58.4,34 56.4333333,28.9 52.5,25.9 C48.5666667,22.9 43.3333333,21.4 36.8,21.4 Z" id="Shape"></path>
            </g>
            <g id="4" transform="translate(97.400000, 149.400000)" fill="#212529" fill-rule="nonzero">
                <path d="M51.6,30.8 C49.2,33.8666667 46.7333333,37.1333333 44.2,40.6 C41.6666667,44.0666667 39.1666667,47.7 36.7,51.5 C34.2333333,55.3 31.8666667,59.1333333 29.6,63 C27.3333333,66.8666667 25.3333333,70.6666667 23.6,74.4 L51.6,74.4 L51.6,30.8 Z M76.2,0 L76.2,74.4 L89.6,74.4 L89.6,94.6 L76.2,94.6 L76.2,123.8 L51.6,123.8 L51.6,94.6 L0,94.6 L0,76.6 C2.53333333,71.4 5.8,65.5 9.8,58.9 C13.8,52.3 18.2,45.5333333 23,38.6 C27.8,31.6666667 32.8666667,24.8333333 38.2,18.1 C43.5333333,11.3666667 48.8666667,5.33333333 54.2,0 L76.2,0 Z" id="Shape"></path>
            </g>
        </g>
    </g>
</svg>